<svg id="visual" viewBox="0 0 960 540" width="960" height="540" xmlns="http://www.w3.org/2000/svg" xmlns:xlink="http://www.w3.org/1999/xlink" version="1.1"><path d="M127 0L137.3 12.8C147.7 25.7 168.3 51.3 175.5 77C182.7 102.7 176.3 128.3 184.3 154C192.3 179.7 214.7 205.3 243 231.2C271.3 257 305.7 283 317.3 308.8C329 334.7 318 360.3 308.3 386C298.7 411.7 290.3 437.3 298.3 463C306.3 488.7 330.7 514.3 342.8 527.2L355 540L0 540L0 527.2C0 514.3 0 488.7 0 463C0 437.3 0 411.7 0 386C0 360.3 0 334.7 0 308.8C0 283 0 257 0 231.2C0 205.3 0 179.7 0 154C0 128.3 0 102.7 0 77C0 51.3 0 25.7 0 12.8L0 0Z" fill="#ffcb77" stroke-linecap="round" stroke-linejoin="miter"></path></svg>